<?xml version="1.0" encoding="utf-8"?>
<!-- Generator: Adobe Illustrator 21.1.0, SVG Export Plug-In . SVG Version: 6.00 Build 0)  -->
<svg version="1.1" id="Layer_1" xmlns="http://www.w3.org/2000/svg" xmlns:xlink="http://www.w3.org/1999/xlink" x="0px" y="0px"
	 viewBox="0 0 1296 247.2" style="enable-background:new 0 0 1296 247.2;" xml:space="preserve">
<style type="text/css">
	.st0{fill:#FFFFFF;}
	.st1{fill:#FF4040;}
</style>
<g>
	<g>
		<polygon class="st0" points="0,81 0,162 81,162 81,243 162,243 162,81 		"/>
		<rect x="162" y="0" class="st1" width="81" height="81"/>
	</g>
	<g>
		<g>
			<path class="st0" d="M364.1,82.9H307V48h151.8v34.8h-57.1V243h-37.6V82.9z"/>
			<path class="st0" d="M563,214.3c-12.3,17.8-30.4,32.9-61,32.9c-40.7,0-69.9-30.1-69.9-78c0-47.9,29.8-78,68.2-78
				s67.7,30.1,67.7,78v10.9h-99.2c1.1,22.8,12.8,35.1,32.6,35.1c18.9,0,29-12.8,36.2-23.1L563,214.3z M532.9,153.1
				c-1.7-18.7-13.1-30.1-32.6-30.1c-18.4,0-30.1,13.6-31.5,30.1H532.9z"/>
			<path class="st0" d="M585.8,95.4h34.3V111h0.6c5.6-10.9,17.3-18.4,30.4-18.4c4.5,0,8.9,0.8,13.4,2.8l-5.6,35.1
				c-3.9-1.4-7.8-2.2-11.4-2.2c-15.6,0-25.3,10-25.3,33.7V243h-36.2V95.4z"/>
			<path class="st0" d="M675.3,95.4h33.1v14.2h0.6c6.4-10,19.8-18.4,35.7-18.4c15.9,0,30.6,8.4,37.6,19.5h0.6
				c7.2-10.9,21.4-19.5,38.4-19.5c35.9,0,57.4,20.9,57.4,50.7V243h-33.1v-93.6c0-13.4-7-24.8-25.6-24.8c-17,0-25.3,10-25.3,22.8V243
				h-33.1v-93.6c0-13.4-8.4-24.8-25.6-24.8c-17.3,0-25.3,10-25.3,22.8V243h-35.1V95.4z"/>
			<path class="st0" d="M904.3,39.7h36.2v34.3h-36.2V39.7z M904.3,95.4h36.2V243h-36.2V95.4z"/>
			<path class="st0" d="M966.2,95.4h34.8v14.2h0.6c7.5-9.7,22.6-18.4,39-18.4c32.6,0,52.4,20.3,52.4,55.2V243h-36.2v-87.7
				c0-19.2-6.1-30.6-25.9-30.6c-17.8,0-28.4,11.1-28.4,28.1V243h-36.2V95.4z"/>
			<path class="st0" d="M1203.5,228.8h-0.6c0,0-10.3,18.4-40.1,18.4c-38.2,0-53.2-21.4-53.2-43.7c0-26.5,14.8-37.3,50.1-46
				c35.1-8.6,38.2-11.7,38.2-20.1c0-8.4-7.5-15.6-25.1-15.6c-22,0-27.6,12.8-31.2,24.2l-30.1-12.5c6.4-22.6,25.3-42.3,60.7-42.3
				c33.1,0,61.6,15.9,61.6,58.2V243h-30.4V228.8z M1144.4,201c0,11.1,8.9,15,21.7,15c23.7,0,32.9-10.9,32.9-21.7v-25.6h-0.6
				c-1.7,3.1-2.8,6.7-31.5,13.9C1146.4,187.6,1144.4,194.8,1144.4,201z"/>
			<path class="st0" d="M1258.4,39.7h37.6V243h-37.6V39.7z"/>
		</g>
	</g>
</g>
</svg>
