<?xml version="1.0" encoding="UTF-8"?>
<svg width="150px" height="21px" viewBox="0 0 150 21" version="1.1" xmlns="http://www.w3.org/2000/svg" xmlns:xlink="http://www.w3.org/1999/xlink">
    <!-- Generator: Sketch 47 (45396) - http://www.bohemiancoding.com/sketch -->
    <title>sequoia-mark-full-grey</title>
    <desc>Created with Sketch.</desc>
    <defs></defs>
    <g id="2.0-Visuals" stroke="none" stroke-width="1" fill="none" fill-rule="evenodd">
        <g id="2.6-About" transform="translate(-798.000000, -3609.000000)" fill-rule="nonzero">
            <g id="sequoia-mark-full-grey" transform="translate(798.000000, 3609.000000)">
                <polygon id="Fill-8" fill="#C3C3C3" points="144.45 1.1255 149.25 1.1255 149.25 5.9255 144.45 5.9255"></polygon>
                <polyline id="Fill-9" fill="#C3C3C3" points="132.45 16.2255 132.45 1.1255 130.05 1.1255 130.05 18.6255 132.45 16.2255"></polyline>
                <polyline id="Fill-10" fill="#C3C3C3" points="134.15 17.9255 131.75 20.3255 149.25 20.3255 149.25 17.9255 134.15 17.9255"></polyline>
                <polyline id="Fill-11" fill="#C3C3C3" points="137.25 11.4255 137.25 1.1255 134.85 1.1255 134.85 13.8255 137.25 11.4255"></polyline>
                <polyline id="Fill-12" fill="#C3C3C3" points="138.95 13.1255 136.55 15.5255 149.25 15.5255 149.25 13.1255 138.95 13.1255"></polyline>
                <polyline id="Fill-13" fill="#C3C3C3" points="142.05 6.6255 142.05 1.1255 139.65 1.1255 139.65 9.0255 142.05 6.6255"></polyline>
                <path d="M53.25,20.3255 L51.35,17.0255 C52.25,15.3255 52.25,13.3255 52.25,10.7255 C52.25,7.4255 52.25,5.0255 50.35,3.0255 C49.05,1.6255 47.35,0.9255 45.15,0.9255 C42.95,0.9255 41.25,1.7255 39.95,3.0255 C38.05,4.9255 38.05,7.3255 38.05,10.7255 C38.05,14.0255 37.95,16.4255 39.95,18.4255 C41.35,19.8255 42.95,20.5255 45.15,20.5255 C45.75,20.5255 46.25,20.4255 46.75,20.3255 L53.25,20.3255 L53.25,20.3255 Z M42.65,16.1255 C41.95,15.3255 41.75,14.4255 41.75,10.7255 C41.75,7.0255 41.95,6.1255 42.65,5.3255 C43.15,4.7255 44.05,4.3255 45.05,4.3255 C46.05,4.3255 46.95,4.7255 47.45,5.3255 C48.15,6.1255 48.35,7.0255 48.35,10.7255 C48.35,14.4255 48.15,15.3255 47.45,16.1255 C46.95,16.7255 46.05,17.1255 45.05,17.1255 C44.05,17.1255 43.15,16.7255 42.65,16.1255 L42.65,16.1255 Z" id="Fill-1" fill="#3C3C3C"></path>
                <polygon id="Fill-2" fill="#3C3C3C" points="97.15 1.1255 100.85 1.1255 100.85 20.3255 97.15 20.3255"></polygon>
                <path d="M7.75,20.5255 C4.85,20.5255 2.65,19.9255 0.75,18.0255 L3.15,15.6255 C4.35,16.8255 6.05,17.2255 7.75,17.2255 C9.95,17.2255 11.15,16.4255 11.15,14.8255 C11.15,14.1255 10.95,13.6255 10.55,13.2255 C10.15,12.8255 9.75,12.7255 8.85,12.5255 L6.55,12.2255 C4.95,12.0255 3.65,11.4255 2.85,10.6255 C1.95,9.7255 1.45,8.4255 1.45,6.8255 C1.45,3.4255 3.95,1.0255 8.15,1.0255 C10.75,1.0255 12.75,1.6255 14.35,3.2255 L11.95,5.5255 C10.75,4.3255 9.25,4.2255 8.05,4.2255 C6.05,4.2255 5.05,5.3255 5.05,6.6255 C5.05,7.1255 5.25,7.6255 5.65,8.0255 C6.05,8.4255 6.65,8.6255 7.45,8.8255 L9.75,9.1255 C11.55,9.3255 12.65,9.8255 13.45,10.6255 C14.45,11.6255 14.95,13.0255 14.95,14.7255 C14.95,18.4255 11.75,20.5255 7.75,20.5255" id="Fill-3" fill="#3C3C3C"></path>
                <polyline id="Fill-4" fill="#3C3C3C" points="20.35 20.3255 20.35 1.1255 33.05 1.1255 33.05 4.4255 24.15 4.4255 24.15 8.9255 31.75 8.9255 31.75 12.3255 24.15 12.3255 24.15 17.0255 33.05 17.0255 33.05 20.3255 20.35 20.3255"></polyline>
                <path d="M64.95,20.5255 C61.05,20.5255 57.85,17.8255 57.85,13.7255 L57.85,1.1255 L61.65,1.1255 L61.65,13.6255 C61.65,15.8255 62.95,17.1255 64.95,17.1255 C66.95,17.1255 68.25,15.8255 68.25,13.6255 L68.25,1.1255 L71.95,1.1255 L71.95,13.7255 C71.95,17.8255 68.85,20.5255 64.95,20.5255" id="Fill-5" fill="#3C3C3C"></path>
                <path d="M89.75,18.4255 C88.45,19.8255 86.75,20.5255 84.55,20.5255 C82.35,20.5255 80.65,19.7255 79.35,18.4255 C77.45,16.5255 77.45,14.1255 77.45,10.7255 C77.45,7.4255 77.35,5.0255 79.35,3.0255 C80.65,1.6255 82.35,0.9255 84.55,0.9255 C86.75,0.9255 88.35,1.7255 89.75,3.0255 C91.65,4.9255 91.65,7.3255 91.65,10.7255 C91.65,14.0255 91.65,16.4255 89.75,18.4255 M86.95,5.3255 C86.45,4.7255 85.55,4.3255 84.55,4.3255 C83.55,4.3255 82.65,4.7255 82.15,5.3255 C81.45,6.1255 81.25,7.0255 81.25,10.7255 C81.25,14.4255 81.45,15.3255 82.15,16.1255 C82.65,16.7255 83.55,17.1255 84.55,17.1255 C85.55,17.1255 86.45,16.7255 86.95,16.1255 C87.65,15.3255 87.85,14.4255 87.85,10.7255 C87.85,7.0255 87.65,6.1255 86.95,5.3255" id="Fill-6" fill="#3C3C3C"></path>
                <path d="M118.55,20.3255 L117.45,16.9255 L110.65,16.9255 L109.45,20.3255 L105.55,20.3255 L112.55,1.1255 L115.45,1.1255 L122.45,20.3255 L118.55,20.3255 L118.55,20.3255 Z M114.05,6.7255 L111.65,13.7255 L116.45,13.7255 L114.05,6.7255 L114.05,6.7255 Z" id="Fill-7" fill="#3C3C3C"></path>
                <polyline id="Fill-14" fill="#C3C3C3" points="143.75 8.3255 141.35 10.7255 149.25 10.7255 149.25 8.3255 143.75 8.3255"></polyline>
            </g>
        </g>
    </g>
</svg>