<?xml version="1.0" encoding="UTF-8"?>
<svg width="26px" height="26px" viewBox="0 0 26 26" version="1.1" xmlns="http://www.w3.org/2000/svg" xmlns:xlink="http://www.w3.org/1999/xlink">
    <!-- Generator: Sketch 46.2 (44496) - http://www.bohemiancoding.com/sketch -->
    <title>Group 5</title>
    <desc>Created with Sketch.</desc>
    <defs></defs>
    <g id="2.0-Visuals" stroke="none" stroke-width="1" fill="none" fill-rule="evenodd">
        <g id="2.3-Join" transform="translate(-359.000000, -2316.000000)">
            <g id="clock_1x-copy-4" transform="translate(344.000000, 2302.000000)">
                <g id="Group-5" transform="translate(15.000000, 14.000000)">
                    <path d="M1.625,17.8753125 L3.25,12.1867292 L3.25,12.9997708 L22.75,12.9997708 L22.75,12.1867292 L24.375,17.8753125 L1.625,17.8753125 Z M24.375,22.7492292 L22.75,22.7492292 L3.25,22.7492292 L1.625,22.7492292 L1.625,19.4992292 L24.375,19.4992292 L24.375,22.7492292 Z M4.875,6.49922917 L8.125,6.49922917 L8.125,7.31172917 C8.125,7.76077083 8.48845833,8.12422917 8.9375,8.12422917 L17.0625,8.12422917 C17.511,8.12422917 17.875,7.76077083 17.875,7.31172917 L17.875,6.49922917 L21.125,6.49922917 L22.517625,11.3742292 L3.48183333,11.3742292 L4.875,6.49922917 Z M9.75,6.49922917 L16.25,6.49922917 L16.25,4.87477083 L9.75,4.87477083 L9.75,6.49922917 Z M4.875,2.4378125 C4.875,1.98822917 5.23845833,1.62422917 5.6875,1.62422917 L20.3125,1.62422917 C20.761,1.62422917 21.125,1.98822917 21.125,2.4378125 L21.125,4.06172917 C21.125,4.51022917 20.761,4.87477083 20.3125,4.87477083 L17.875,4.87477083 L17.875,4.06172917 C17.875,3.6126875 17.511,3.24977083 17.0625,3.24977083 L8.9375,3.24977083 C8.48845833,3.24977083 8.125,3.6126875 8.125,4.06172917 L8.125,4.87477083 L5.6875,4.87477083 C5.23845833,4.87477083 4.875,4.51022917 4.875,4.06172917 L4.875,2.4378125 Z M25.6387083,17.8753125 L22.75,4.87477083 L22.75,1.62422917 C22.75,0.727229167 22.022,-0.000229166666 21.125,-0.000229166666 L4.875,-0.000229166666 C3.97745833,-0.000229166666 3.25,0.727229167 3.25,1.62422917 L3.25,4.87477083 L0.36075,17.8753125 L0,17.8753125 L0,24.3747708 L1.625,24.3747708 L1.625,25.9992292 L3.25,25.9992292 L3.25,24.3747708 L22.75,24.3747708 L22.75,25.9992292 L24.375,25.9992292 L24.375,24.3747708 L26,24.3747708 L26,17.8753125 L25.6387083,17.8753125 Z" id="Page-1" fill="#3C4042"></path>
                    <rect id="Rectangle" stroke="#FF4343" stroke-width="1.5" x="8.75" y="3.75" width="8.5" height="3.5" rx="1"></rect>
                </g>
            </g>
        </g>
    </g>
</svg>