<?xml version="1.0" encoding="utf-8"?>
<!-- Generator: Adobe Illustrator 21.1.0, SVG Export Plug-In . SVG Version: 6.00 Build 0)  -->
<svg version="1.1" id="Layer_1" xmlns="http://www.w3.org/2000/svg" xmlns:xlink="http://www.w3.org/1999/xlink" x="0px" y="0px"
	 viewBox="0 0 26 26" style="enable-background:new 0 0 26 26;" xml:space="preserve">
<style type="text/css">
	.st0{fill:#3C4042;}
	.st1{fill:none;stroke:#FF4343;stroke-width:1.5;}
</style>
<rect x="8.8" y="4" class="st0" width="8.2" height="2.9"/>
<title>Group 10</title>
<desc>Created with Sketch.</desc>
<g id="Page-1_1_">
	<g id="_x32_.3-Join" transform="translate(-359.000000, -2316.000000)">
		<g id="clock_1x-copy-4" transform="translate(344.000000, 2302.000000)">
			<g id="Group-10" transform="translate(15.000000, 14.000000)">
				<path id="Page-1" class="st0" d="M1.6,17.9l1.6-5.7l-1,0.8h21.5l-1-0.8l1.6,5.7H1.6z M24.4,22.7h-1.6H3.2H1.6v-3.2h22.8V22.7z
					 M17.9,6.5h3.2l1.4,4.9h-19l1.4-4.9h3.2 M9.8,6.5h6.5V4.9H9.8V6.5z M4.9,2.4c0-0.4,0.4-0.8,0.8-0.8h14.6c0.4,0,0.8,0.4,0.8,0.8
					v1.6c0,0.4-0.4,0.8-0.8,0.8H5.7c-0.4,0-0.8-0.4-0.8-0.8V2.4z M25.6,17.9l-2.9-13V1.6C22.8,0.7,22,0,21.1,0H4.9
					C4,0,3.2,0.7,3.2,1.6v3.3l-2.9,13H0v6.5h1.6V26h1.6v-1.6h19.5V26h1.6v-1.6H26v-6.5H25.6z"/>
				<path id="Rectangle" class="st1" d="M9.8,3.8h6.5c0.6,0,1,0.4,1,1v1.5c0,0.6-0.4,1-1,1H9.8c-0.6,0-1-0.4-1-1V4.8
					C8.8,4.2,9.2,3.8,9.8,3.8z"/>
			</g>
		</g>
	</g>
</g>
</svg>
