<?xml version="1.0" encoding="utf-8"?>
<!-- Generator: Adobe Illustrator 21.1.0, SVG Export Plug-In . SVG Version: 6.00 Build 0)  -->
<svg version="1.1" id="Layer_1" xmlns="http://www.w3.org/2000/svg" xmlns:xlink="http://www.w3.org/1999/xlink" x="0px" y="0px"
	 viewBox="0 0 25 29" style="enable-background:new 0 0 25 29;" xml:space="preserve">
<style type="text/css">
	.st0{filter:url(#Adobe_OpacityMaskFilter);}
	.st1{fill:#FFFFFF;}
	.st2{mask:url(#mask-2);fill:#3C4042;}
	.st3{fill:#FF4343;}
</style>
<title>Group 5</title>
<desc>Created with Sketch.</desc>
<g id="Page-1_1_">
	<g id="_x32_.3-Join" transform="translate(-360.000000, -1944.000000)">
		<g id="clock_1x" transform="translate(345.000000, 1931.000000)">
			<g id="Group-5" transform="translate(15.000000, 13.000000)">
				<g id="Page-1">
					<g id="Clip-2">
					</g>
					<defs>
						<filter id="Adobe_OpacityMaskFilter" filterUnits="userSpaceOnUse" x="0" y="7.2" width="25" height="21.8">
							<feColorMatrix  type="matrix" values="1 0 0 0 0  0 1 0 0 0  0 0 1 0 0  0 0 0 1 0"/>
						</filter>
					</defs>
					<mask maskUnits="userSpaceOnUse" x="0" y="7.2" width="25" height="21.8" id="mask-2">
						<g class="st0">
							<polygon id="path-1" class="st1" points="0,29 25,29 25,0 0,0 							"/>
						</g>
					</mask>
					<path id="Fill-1" class="st2" d="M23.2,10.9c0,6-4.8,10.9-10.7,10.9S1.8,16.9,1.8,10.9c0-0.6-0.1-1.2,0-1.8h21.4
						C23.3,9.6,23.2,10.3,23.2,10.9L23.2,10.9z M0,7.2v3.7c0,5,2.9,9.3,7,11.4l-3.5,5.8L5.2,29l3.6-6.1c1.2,0.4,2.4,0.6,3.7,0.6
						s2.5-0.3,3.7-0.6l3.6,6.1l1.6-0.9L18,22.3c4.2-2.1,7-6.4,7-11.4V7.2H0z"/>
				</g>
				<polygon id="Path" class="st3" points="7.1,5.4 8.9,5.4 8.9,1.8 7.1,1.8 				"/>
				<polygon id="Path_1_" class="st3" points="17.9,5.4 19.6,5.4 19.6,1.8 17.9,1.8 				"/>
				<polygon id="Path_2_" class="st3" points="12.5,5.4 14.3,5.4 14.3,0 12.5,0 				"/>
			</g>
		</g>
	</g>
</g>
</svg>
