<?xml version="1.0" encoding="UTF-8"?>
<svg width="25px" height="29px" viewBox="0 0 25 29" version="1.1" xmlns="http://www.w3.org/2000/svg" xmlns:xlink="http://www.w3.org/1999/xlink">
    <!-- Generator: Sketch 46.2 (44496) - http://www.bohemiancoding.com/sketch -->
    <title>Group 5</title>
    <desc>Created with Sketch.</desc>
    <defs>
        <polygon id="path-1" points="0 29 25 29 25 0 0 0"></polygon>
    </defs>
    <g id="Page-1" stroke="none" stroke-width="1" fill="none" fill-rule="evenodd">
        <g id="2.3-Join" transform="translate(-360.000000, -1944.000000)">
            <g id="clock_1x" transform="translate(345.000000, 1931.000000)">
                <g id="Group-5" transform="translate(15.000000, 13.000000)">
                    <g id="Page-1">
                        <mask id="mask-2" fill="white">
                            <use xlink:href="#path-1"></use>
                        </mask>
                        <g id="Clip-2"></g>
                        <path d="M23.2142857,10.8664624 C23.2142857,16.8811563 18.4172619,21.7571021 12.5,21.7571021 C6.5827381,21.7571021 1.78630952,16.8811563 1.78630952,10.8664624 C1.78630952,10.2565914 1.68154762,9.6382584 1.78630952,9.05981784 L23.2142857,9.05981784 C23.3190476,9.6382584 23.2142857,10.2565914 23.2142857,10.8664624 L23.2142857,10.8664624 Z M0,7.22355614 L0,10.8912441 C0,15.9007691 2.8827381,20.1928344 7.0327381,22.2581755 L3.5797619,28.0631318 L5.17619048,29 L8.77559524,22.9484358 C9.95892857,23.3262052 11.1934524,23.5873195 12.5,23.5873195 C13.8065476,23.5873195 15.0410714,23.3262052 16.225,22.9484358 L19.8238095,29 L21.4202381,28.0631318 L17.9672619,22.2581755 C22.1178571,20.1928344 25,15.9007691 25,10.8912441 L25,7.22355614 L0,7.22355614 Z" id="Fill-1" fill="#3C4042" mask="url(#mask-2)"></path>
                    </g>
                    <polygon id="Path" fill="#FF4343" points="7.14285714 5.41812043 8.92857143 5.41812043 8.92857143 1.807249 7.14285714 1.807249"></polygon>
                    <polygon id="Path" fill="#FF4343" points="17.8571429 5.41812043 19.6428571 5.41812043 19.6428571 1.807249 17.8571429 1.807249"></polygon>
                    <polygon id="Path" fill="#FF4343" points="12.5 5.417516 14.2857143 5.417516 14.2857143 0 12.5 0"></polygon>
                </g>
            </g>
        </g>
    </g>
</svg>