<?xml version="1.0" encoding="UTF-8"?>
<svg width="17px" height="23px" viewBox="0 0 17 23" version="1.1" xmlns="http://www.w3.org/2000/svg" xmlns:xlink="http://www.w3.org/1999/xlink">
    <!-- Generator: Sketch 46.2 (44496) - http://www.bohemiancoding.com/sketch -->
    <title>Group 7</title>
    <desc>Created with Sketch.</desc>
    <defs></defs>
    <g id="Page-1" stroke="none" stroke-width="1" fill="none" fill-rule="evenodd">
        <g id="2.3-Join" transform="translate(-761.000000, -1946.000000)">
            <g id="Group-7" transform="translate(761.000000, 1946.000000)">
                <path d="M12.75,21.5630091 L4.25,21.5630091 L4.25,15.3799713 L8.5,12.2774317 L12.75,15.3799713 L12.75,21.5630091 Z M4.25,7.62002875 L4.25,1.43842837 L12.75,1.43842837 L12.75,7.62002875 L8.5,10.7235266 L4.25,7.62002875 Z M16.2911944,21.5630091 L14.1666667,21.5630091 L14.1666667,15.0934356 L14.1657222,15.0896023 C14.1628889,15.0531864 14.1534444,15.0196454 14.1444722,14.9841878 C14.0939444,14.6621945 13.84225,14.4168663 13.5183056,14.3876378 L9.56391667,11.5007187 L13.5183056,8.61379971 C13.84225,8.58457115 14.0934722,8.33828462 14.1444722,8.01724964 C14.1534444,7.98179205 14.1628889,7.94777192 14.1657222,7.91183517 C14.1657222,7.9103977 14.1666667,7.90848107 14.1666667,7.90848107 L14.1666667,1.43842837 L16.2911944,1.43842837 C16.6826667,1.43842837 17,1.11643507 17,0.718735026 C17,0.321993292 16.6826667,0 16.2911944,0 L0.708333333,0 C0.317333333,0 0,0.321993292 0,0.718735026 C0,1.11643507 0.317333333,1.43842837 0.708333333,1.43842837 L2.83333333,1.43842837 L2.83333333,7.9070436 C2.83333333,7.9070436 2.83427778,7.9103977 2.83427778,7.91183517 C2.83663889,7.94777192 2.84608333,7.98179205 2.85505556,8.0177288 C2.90605556,8.33828462 3.15775,8.58457115 3.48122222,8.61379971 L7.43561111,11.5007187 L3.48122222,14.3876378 C3.15775,14.4168663 2.90605556,14.6621945 2.85505556,14.9841878 C2.84608333,15.0196454 2.83663889,15.0531864 2.83427778,15.0896023 L2.83333333,15.0934356 L2.83333333,21.5630091 L0.708333333,21.5630091 C0.317333333,21.5630091 0,21.8840441 0,22.2807858 C0,22.6780067 0.317333333,23 0.708333333,23 L16.2911944,23 C16.6826667,23 17,22.6780067 17,22.2807858 C17,21.8840441 16.6826667,21.5630091 16.2911944,21.5630091 L16.2911944,21.5630091 Z" id="Page-1" fill="#3C4042"></path>
                <path d="M4.5,4.75 L11.5,4.75" id="Line" stroke="#FF4343" stroke-width="1.5" stroke-linecap="square"></path>
            </g>
        </g>
    </g>
</svg>