<?xml version="1.0" encoding="utf-8"?>
<!-- Generator: Adobe Illustrator 21.1.0, SVG Export Plug-In . SVG Version: 6.00 Build 0)  -->
<svg version="1.1" id="Layer_1" xmlns="http://www.w3.org/2000/svg" xmlns:xlink="http://www.w3.org/1999/xlink" x="0px" y="0px"
	 viewBox="0 0 17 23" style="enable-background:new 0 0 17 23;" xml:space="preserve">
<style type="text/css">
	.st0{fill:#FF4343;}
	.st1{fill:none;stroke:#3C4042;stroke-width:1.5;stroke-miterlimit:10;}
	.st2{fill:#3C4042;}
</style>
<rect x="3.7" y="4" class="st0" width="9.6" height="1.5"/>
<title>Group 7</title>
<desc>Created with Sketch.</desc>
<polygon class="st1" points="13.4,7.6 8.5,11.5 3.5,7.6 3.5,0.8 13.4,0.8 "/>
<polygon class="st1" points="3.5,15.4 8.5,11.5 13.4,15.4 13.4,22.2 3.5,22.2 "/>
<path class="st2" d="M16.3,23H0.7C0.3,23,0,22.7,0,22.3l0,0c0-0.4,0.3-0.7,0.7-0.7h15.5c0.4,0,0.7,0.3,0.7,0.7l0,0
	C17,22.7,16.7,23,16.3,23z"/>
<path class="st2" d="M16.3,1.5H0.7C0.3,1.5,0,1.2,0,0.8v0C0,0.4,0.3,0,0.7,0h15.5C16.7,0,17,0.4,17,0.8v0C17,1.2,16.7,1.5,16.3,1.5z
	"/>
</svg>
