<?xml version="1.0" encoding="UTF-8"?>
<svg width="16px" height="23px" viewBox="0 0 16 23" version="1.1" xmlns="http://www.w3.org/2000/svg" xmlns:xlink="http://www.w3.org/1999/xlink">
    <!-- Generator: Sketch 46.2 (44496) - http://www.bohemiancoding.com/sketch -->
    <title>Group 9</title>
    <desc>Created with Sketch.</desc>
    <defs></defs>
    <g id="Page-1" stroke="none" stroke-width="1" fill="none" fill-rule="evenodd">
        <g id="2.3-Join" transform="translate(-364.000000, -2132.000000)">
            <g id="clock_1x-copy-2" transform="translate(344.000000, 2116.000000)">
                <g id="Page-1" transform="translate(20.000000, 16.000000)">
                    <g id="Group-9">
                        <path d="M7.27250689,10.4194792 L3.99163662,7.17647917 L2.89833641,8.257 L7.27250689,12.581 L7.27250689,17.160875 C4.00521196,16.7186042 1.45498621,13.409 1.45498621,9.34375 C1.45498621,4.97758333 4.38532166,1.4375 8.00024242,1.4375 C11.6146783,1.4375 14.5454986,4.97758333 14.5454986,9.34375 C14.5454986,13.409 11.9952729,16.7186042 8.72749311,17.160875 L8.72749311,12.5718958 L13.0793612,8.27185417 L11.9938184,7.199 L8.72749311,10.4281042 L8.72749311,4.3125 L7.27250689,4.3125 L7.27250689,10.4194792 Z M8.72749311,18.6017292 C12.7991273,18.1666458 16,14.2130417 16,9.34375 C16,4.18264583 12.4180479,0 8.00024242,0 C3.58195206,0 0,4.18264583 0,9.34375 C0,14.2130417 3.20135753,18.1666458 7.27250689,18.6017292 L7.27250689,21.5625 L0,21.5625 L0,23 L16,23 L16,21.5625 L8.72749311,21.5625 L8.72749311,18.6017292 Z" id="Fill-1" fill="#3C4042"></path>
                        <path d="M0.497916811,21.75 L15.5,21.75" id="Line-3" stroke="#FF4343" stroke-width="1.5" stroke-linecap="square"></path>
                    </g>
                </g>
            </g>
        </g>
    </g>
</svg>