<?xml version="1.0" encoding="utf-8"?>
<!-- Generator: Adobe Illustrator 21.1.0, SVG Export Plug-In . SVG Version: 6.00 Build 0)  -->
<svg version="1.1" id="Layer_1" xmlns="http://www.w3.org/2000/svg" xmlns:xlink="http://www.w3.org/1999/xlink" x="0px" y="0px"
	 viewBox="0 0 16 23" style="enable-background:new 0 0 16 23;" xml:space="preserve">
<style type="text/css">
	.st0{fill:#3C4042;}
	.st1{display:none;fill:none;stroke:#FF4343;stroke-width:1.5;stroke-linecap:square;}
	.st2{fill:#FF4343;}
</style>
<title>Group 9</title>
<desc>Created with Sketch.</desc>
<g id="Page-1_1_">
	<g id="_x32_.3-Join" transform="translate(-364.000000, -2132.000000)">
		<g id="clock_1x-copy-2" transform="translate(344.000000, 2116.000000)">
			<g id="Page-1" transform="translate(20.000000, 16.000000)">
				<g id="Group-9">
					<path id="Fill-1" class="st0" d="M7.3,10.4L4,7.2L2.9,8.3l4.4,4.3v4.6C4,16.7,1.5,13.4,1.5,9.3C1.5,5,4.4,1.4,8,1.4
						c3.6,0,6.5,3.5,6.5,7.9c0,4.1-2.6,7.4-5.8,7.8v-4.6l4.4-4.3L12,7.2l-3.3,3.2V4.3H7.3V10.4z M8.7,18.6c4.1-0.4,7.3-4.4,7.3-9.3
						C16,4.2,12.4,0,8,0C3.6,0,0,4.2,0,9.3c0,4.9,3.2,8.8,7.3,9.3v3H0V23h16v-1.4H8.7V18.6z"/>
					<path id="Line-3" class="st1" d="M0.5,21.8h15"/>
				</g>
			</g>
		</g>
	</g>
</g>
<rect y="21.6" class="st2" width="16" height="1.4"/>
</svg>
