<?xml version="1.0" encoding="UTF-8"?>
<svg width="25px" height="26px" viewBox="0 0 25 26" version="1.1" xmlns="http://www.w3.org/2000/svg" xmlns:xlink="http://www.w3.org/1999/xlink">
    <!-- Generator: Sketch 46.2 (44496) - http://www.bohemiancoding.com/sketch -->
    <title>Group 9</title>
    <desc>Created with Sketch.</desc>
    <defs></defs>
    <g id="Page-1" stroke="none" stroke-width="1" fill="none" fill-rule="evenodd">
        <g id="2.3-Join" transform="translate(-757.000000, -2317.000000)">
            <g id="clock_1x-copy-5" transform="translate(742.000000, 2302.000000)">
                <g id="Page-1" transform="translate(15.000000, 15.000000)">
                    <g id="Group-9">
                        <path d="M13.8652761,19.0736023 C11.928233,19.0736023 10.1096507,18.6204735 8.472629,17.8610203 L12.2092054,11.9605202 C12.5907803,12.0645549 12.9854513,12.1373791 13.4015525,12.1373791 C13.8176536,12.1373791 14.2123247,12.0645549 14.5944948,11.9605202 L18.534062,18.1829499 C17.0899112,18.747627 15.5189656,19.0736023 13.8652761,19.0736023 L13.8652761,19.0736023 Z M13.4015525,5.20231188 C14.8784437,5.20231188 16.0761483,6.36576637 16.0761483,7.8020229 C16.0761483,9.23770146 14.8784437,10.4028899 13.4015525,10.4028899 C11.924066,10.4028899 10.7269567,9.23770146 10.7269567,7.8020229 C10.7269567,6.36576637 11.924066,5.20231188 13.4015525,5.20231188 L13.4015525,5.20231188 Z M16.1666309,11.1779482 C17.1905136,10.3838168 17.859609,9.17528065 17.859609,7.8020229 C17.859609,5.70514616 16.327952,3.9567856 14.2932829,3.55451817 L14.2932829,0 L12.5098221,0 L12.5098221,3.55451817 C10.475153,3.9567856 8.94349596,5.70514616 8.94349596,7.8020229 C8.94349596,9.17528065 9.61199609,10.3838168 10.636474,11.1779482 L6.94216254,17.0131377 C4.53484773,15.4583972 2.6930495,13.1488274 1.84834631,10.4028899 L0,10.4028899 C0.898278448,13.7736134 3.09486392,16.6126042 6.01292949,18.4811826 L1.8025097,25.1307325 L3.31987999,26 L7.53625259,19.3406247 C9.44829393,20.2590197 11.5841608,20.8069356 13.8652761,20.8069356 C15.8630378,20.8069356 17.7506727,20.3879071 19.4757959,19.6712237 L23.4826297,26 L25,25.1307325 L16.1666309,11.1779482 Z" id="Fill-1" fill="#3C4042"></path>
                        <circle id="Oval" stroke="#FF4343" stroke-width="1.5" cx="13.5" cy="7.5" r="3.5"></circle>
                    </g>
                </g>
            </g>
        </g>
    </g>
</svg>