<?xml version="1.0" encoding="utf-8"?>
<!-- Generator: Adobe Illustrator 21.1.0, SVG Export Plug-In . SVG Version: 6.00 Build 0)  -->
<svg version="1.1" id="Layer_1" xmlns="http://www.w3.org/2000/svg" xmlns:xlink="http://www.w3.org/1999/xlink" x="0px" y="0px"
	 viewBox="0 0 25 26" style="enable-background:new 0 0 25 26;" xml:space="preserve">
<style type="text/css">
	.st0{fill:#3C4042;}
	.st1{fill:#FF4343;}
</style>
<title>Group 9</title>
<desc>Created with Sketch.</desc>
<g id="Page-1_1_">
	<g id="_x32_.3-Join" transform="translate(-757.000000, -2317.000000)">
		<g id="clock_1x-copy-5" transform="translate(742.000000, 2302.000000)">
			<g id="Page-1" transform="translate(15.000000, 15.000000)">
				<g id="Group-9">
					<path id="Fill-1" class="st0" d="M13.9,19.1c-1.9,0-3.8-0.5-5.4-1.2l3.7-5.9c0.4,0.1,0.8,0,1.2,0c0.4,0,0.7,0,1.1-0.1l4,6.3
						C17.1,18.7,15.5,19.1,13.9,19.1L13.9,19.1z M13.4,5.1c1.5,0,2.7,1.2,2.7,2.7c0,1.4-1.3,2.6-2.7,2.6c-1.5,0-2.7-1.2-2.7-2.6
						C10.7,6.4,11.9,5.1,13.4,5.1L13.4,5.1z M16.2,11.2c1-0.8,1.7-2,1.7-3.4c0-2.1-1.5-3.8-3.6-4.2V0h-1.8v3.6
						c-2,0.4-3.6,2.2-3.6,4.2c0,1.4,0.7,2.6,1.7,3.4L6.9,17c-2.4-1.6-4.2-3.9-5.1-6.6H0c0.9,3.4,3.1,6.2,6,8.1l-4.2,6.6L3.3,26
						l4.2-6.7c1.9,0.9,4,1.5,6.3,1.5c2,0,3.9-0.4,5.6-1.1l4,6.3l1.5-0.9L16.2,11.2z"/>
				</g>
			</g>
		</g>
	</g>
</g>
<path class="st1" d="M13.4,3.5c-2.5,0-4.5,1.9-4.5,4.3c0,2.4,2,4.3,4.5,4.3s4.5-1.9,4.5-4.3C17.9,5.4,15.9,3.5,13.4,3.5z M13.4,10.4
	c-1.5,0-2.7-1.2-2.7-2.6c0-1.4,1.2-2.6,2.7-2.6s2.7,1.2,2.7,2.6C16.1,9.2,14.9,10.4,13.4,10.4z"/>
</svg>
